<svg width="1600" height="1000" viewBox="0 0 1600 1000" fill="none" xmlns="http://www.w3.org/2000/svg">
  <rect width="1600" height="1000" fill="url(#sky)"/>
  <circle cx="1244" cy="204" r="92" fill="#FFF2BE"/>
  <path d="M0 698L181 552L334 642L533 418L741 664L969 354L1204 648L1398 470L1600 696V1000H0V698Z" fill="#9DD0D5"/>
  <path d="M0 770L196 606L360 720L561 504L746 730L964 430L1175 732L1374 596L1600 770V1000H0V770Z" fill="#5F9EA8"/>
  <path d="M0 846L221 678L391 790L603 590L780 807L999 544L1204 816L1424 692L1600 846V1000H0V846Z" fill="#2D6875"/>
  <path d="M0 934C204 874 362 852 528 877C671 898 800 946 931 946C1089 946 1221 875 1329 769C1377 724 1430 673 1491 636C1532 611 1568 595 1600 587V1000H0V934Z" fill="#F4DDB4"/>
  <path d="M807 1000C780 904 757 826 783 753C810 678 870 633 930 633C985 633 1035 665 1058 714C1085 769 1073 837 1047 915C1038 943 1028 971 1017 1000H807Z" fill="#E58D4E"/>
  <path d="M0 948C205 883 366 861 548 889C719 915 868 975 1029 975C1235 975 1407 888 1600 810V1000H0V948Z" fill="#355C59"/>
  <defs>
    <linearGradient id="sky" x1="800" y1="0" x2="800" y2="1000" gradientUnits="userSpaceOnUse">
      <stop stop-color="#BDE4FF"/>
      <stop offset=".46" stop-color="#EBF7FF"/>
      <stop offset="1" stop-color="#FFF4E1"/>
    </linearGradient>
  </defs>
</svg>
